<?xml version="1.0" encoding="UTF-8" standalone="no"?>
<svg width="50px" height="50px" viewBox="0 0 50 50" version="1.1" xmlns="http://www.w3.org/2000/svg" xmlns:xlink="http://www.w3.org/1999/xlink">
    <!-- Generator: Sketch 3.7.2 (28276) - http://www.bohemiancoding.com/sketch -->
    <title>Artboard</title>
    <desc>Created with Sketch.</desc>
    <defs></defs>
    <g id="Page-1" stroke="none" stroke-width="1" fill="none" fill-rule="evenodd">
        <g id="Artboard" fill="#F7F7F7">
            <path d="M13,25.5 C13,23.233325 13.55835,21.141675 14.675,19.225 C15.791675,17.308325 17.30835,15.791675 19.225,14.675 C21.141675,13.558325 23.23335,13 25.5,13 C27.766675,13 29.85835,13.558325 31.775,14.675 C33.691675,15.791675 35.20835,17.308325 36.325,19.225 C37.441675,21.141675 38,23.233325 38,25.5 C38,27.766675 37.441675,29.858325 36.325,31.775 C35.20835,33.691675 33.691675,35.208325 31.775,36.325 C29.85835,37.441675 27.766675,38 25.5,38 C23.23335,38 21.141675,37.441675 19.225,36.325 C17.30835,35.208325 15.791675,33.691675 14.675,31.775 C13.55835,29.858325 13,27.766675 13,25.5 L13,25.5 Z M15.075,25.5 C15.075,28.1 15.95,30.391675 17.7,32.375 C18.5,30.808325 19.766675,29.316675 21.5,27.9 C23.23335,26.483325 24.925,25.591675 26.575,25.225 C26.325,24.641675 26.08335,24.116675 25.85,23.65 C22.98335,24.566675 19.88335,25.025 16.55,25.025 C15.9,25.025 15.416675,25.016675 15.1,25 C15.1,25.066675 15.09585,25.15 15.0875,25.25 C15.079175,25.35 15.075,25.433325 15.075,25.5 L15.075,25.5 Z M15.4,22.925 C15.766675,22.958325 16.30835,22.975 17.025,22.975 C19.80835,22.975 22.45,22.6 24.95,21.85 C23.68335,19.6 22.291675,17.725 20.775,16.225 C19.45835,16.891675 18.329175,17.816675 17.3875,19 C16.44585,20.183325 15.78335,21.491675 15.4,22.925 L15.4,22.925 Z M19.125,33.725 C21.00835,35.191675 23.13335,35.925 25.5,35.925 C26.73335,35.925 27.95835,35.691675 29.175,35.225 C28.841675,32.375 28.191675,29.616675 27.225,26.95 C25.691675,27.283325 24.14585,28.125 22.5875,29.475 C21.029175,30.825 19.875,32.241675 19.125,33.725 L19.125,33.725 Z M22.95,15.425 C24.416675,16.941675 25.775,18.833325 27.025,21.1 C29.291675,20.15 31,18.941675 32.15,17.475 C30.216675,15.875 28,15.075 25.5,15.075 C24.65,15.075 23.8,15.191675 22.95,15.425 L22.95,15.425 Z M27.925,22.875 C28.175,23.408325 28.45835,24.083325 28.775,24.9 C30.00835,24.783325 31.35,24.725 32.8,24.725 C33.83335,24.725 34.85835,24.75 35.875,24.8 C35.741675,22.533325 34.925,20.516675 33.425,18.75 C32.341675,20.366675 30.50835,21.741675 27.925,22.875 L27.925,22.875 Z M29.4,26.65 C30.25,29.116675 30.825,31.65 31.125,34.25 C32.441675,33.4 33.516675,32.308325 34.35,30.975 C35.18335,29.641675 35.68335,28.2 35.85,26.65 C34.63335,26.566675 33.525,26.525 32.525,26.525 C31.60835,26.525 30.566675,26.566675 29.4,26.65 L29.4,26.65 Z" id="Shape"></path>
        </g>
    </g>
</svg>